<svg width="62" height="74" viewBox="0 0 62 74" fill="none" xmlns="http://www.w3.org/2000/svg">
<path d="M41.6841 2H9.03376C7.10945 2 5.26395 2.74277 3.90326 4.0649C2.54257 5.38703 1.77814 7.18022 1.77814 9.05V65.45C1.77814 67.3198 2.54257 69.113 3.90326 70.4351C5.26395 71.7572 7.10945 72.5 9.03376 72.5H52.5675C54.4918 72.5 56.3373 71.7572 57.698 70.4351C59.0587 69.113 59.8231 67.3198 59.8231 65.45V19.625L41.6841 2Z" stroke="#434238" stroke-width="3" stroke-linecap="round" stroke-linejoin="round"/>
<path d="M38.0563 2V16.1C38.0563 17.9698 38.8207 19.763 40.1814 21.0851C41.5421 22.4072 43.3876 23.15 45.3119 23.15H59.8232" stroke="#434238" stroke-width="3" stroke-linecap="round" stroke-linejoin="round"/>
<path d="M13.7188 45.875C13.7188 38.3172 13.7187 34.5391 16.0664 32.1914C18.4141 29.8437 22.1939 29.8438 29.75 29.8438C37.3061 29.8438 41.0859 29.8437 43.4336 32.1914C45.7812 34.5391 45.7812 38.3189 45.7812 45.875C45.7812 53.4311 45.7812 57.2109 43.4336 59.5586C41.0859 61.9062 37.3061 61.9062 29.75 61.9062C22.1939 61.9062 18.4141 61.9062 16.0664 59.5586C13.7187 57.2109 13.7188 53.4311 13.7188 45.875Z" stroke="#434238" stroke-width="3.5625" stroke-linecap="round" stroke-linejoin="round"/>
<path d="M29.75 52.6259L28.2894 47.9003M19.6254 52.6242L21.086 47.9003M21.086 47.9003L22.3079 43.9495C23.3036 40.7325 23.8006 39.1259 24.6877 39.1259C25.5747 39.1259 26.0717 40.7325 27.0656 43.9495L28.2876 47.9003H21.086ZM33.1255 47.3428V49.2487C33.125 49.9931 33.3706 50.7169 33.8241 51.3072C34.2776 51.8976 34.9135 52.3215 35.6329 52.5129C36.3523 52.7043 37.1148 52.6526 37.8018 52.3657C38.4887 52.0788 39.0615 51.5729 39.4311 50.9266M33.1255 47.3428V45.875C33.1255 45.4317 33.2128 44.9928 33.3824 44.5833C33.552 44.1737 33.8007 43.8016 34.1141 43.4882C34.4276 43.1748 34.7997 42.9261 35.2092 42.7565C35.6187 42.5869 36.0577 42.4995 36.5009 42.4995C36.9442 42.4995 37.3831 42.5869 37.7927 42.7565C38.2022 42.9261 38.5743 43.1748 38.8877 43.4882C39.2012 43.8016 39.4498 44.1737 39.6195 44.5833C39.7891 44.9928 39.8764 45.4317 39.8764 45.875V47.3428H33.1255Z" stroke="#434238" stroke-width="3.5625" stroke-linecap="round" stroke-linejoin="round"/>
</svg>
