<svg width="62" height="74" viewBox="0 0 62 74" fill="none" xmlns="http://www.w3.org/2000/svg">
<path d="M42.1841 1.5H9.53375C7.60944 1.5 5.76394 2.24277 4.40324 3.5649C3.04255 4.88703 2.27812 6.68022 2.27812 8.55V64.95C2.27812 66.8198 3.04255 68.613 4.40324 69.9351C5.76394 71.2572 7.60944 72 9.53375 72H53.0675C54.9918 72 56.8373 71.2572 58.198 69.9351C59.5587 68.613 60.3231 66.8198 60.3231 64.95V19.125L42.1841 1.5Z" stroke="#434238" stroke-width="3" stroke-linecap="round" stroke-linejoin="round"/>
<path d="M38.5562 1.5V15.6C38.5562 17.4698 39.3207 19.263 40.6814 20.5851C42.0421 21.9072 43.8876 22.65 45.8119 22.65H60.3231" stroke="#434238" stroke-width="3" stroke-linecap="round" stroke-linejoin="round"/>
<path d="M32.2486 27.9491C32.0655 27.8021 31.8553 27.6928 31.6299 27.6274C31.4045 27.5619 31.1684 27.5417 30.9352 27.5678C30.7019 27.5939 30.4762 27.6659 30.2708 27.7795C30.0655 27.8932 29.8846 28.0463 29.7386 28.2301C29.5926 28.4138 29.4844 28.6246 29.4202 28.8504C29.3559 29.0761 29.3369 29.3123 29.3642 29.5454C29.3916 29.7785 29.4647 30.0039 29.5794 30.2086C29.6941 30.4134 29.8482 30.5935 30.0327 30.7385L36.1228 35.5781H16.8906C16.4182 35.5781 15.9651 35.7658 15.6311 36.0999C15.297 36.4339 15.1094 36.887 15.1094 37.3594C15.1094 37.8318 15.297 38.2849 15.6311 38.6189C15.9651 38.953 16.4182 39.1406 16.8906 39.1406H26.6376L10.4389 51.9959C10.0718 52.2907 9.83631 52.7188 9.78392 53.1867C9.73154 53.6546 9.86653 54.1242 10.1594 54.4928C10.4522 54.8615 10.8791 55.0992 11.3467 55.154C11.8143 55.2088 12.2846 55.0763 12.6548 54.7854L22.3145 47.1206C22.2611 47.5707 22.2344 48.0279 22.2344 48.4922C22.2344 55.8096 28.809 61.4063 36.4844 61.4063C44.1598 61.4063 50.7344 55.8096 50.7344 48.4922C50.7344 44.4897 48.7322 40.9629 45.6845 38.6259L32.2486 27.9491ZM29.4751 41.4385C31.3366 40.017 33.7822 39.1406 36.4844 39.1406C39.1919 39.1406 41.6411 40.0206 43.5061 41.4474C45.7932 43.193 47.1719 45.7277 47.1719 48.4922C47.1719 53.4726 42.5816 57.8438 36.4844 57.8438C30.3871 57.8438 25.7969 53.4726 25.7969 48.4922C25.7969 45.856 27.0509 43.4299 29.1492 41.695L29.4751 41.4385ZM34.6639 49.1032C34.1705 48.6401 33.9532 48.095 33.9853 47.5321C34.0423 46.5257 35.0968 45.3768 36.6536 45.3768C38.2086 45.3768 39.2631 46.5239 39.3219 47.5303C39.354 48.1181 39.1295 48.6579 38.6486 49.1103C38.1409 49.5912 37.4071 49.8941 36.6536 49.8941C35.9149 49.8882 35.2051 49.6061 34.6639 49.1032ZM36.6536 41.8125C33.5435 41.8125 30.608 44.1192 30.4281 47.3344C30.2357 50.7989 33.3226 53.4548 36.6536 53.4548C39.9952 53.4548 43.0696 50.8239 42.8791 47.3308C42.6974 44.1175 39.7619 41.8125 36.6536 41.8125Z" fill="#434238"/>
</svg>
