<svg width="62" height="74" viewBox="0 0 62 74" fill="none" xmlns="http://www.w3.org/2000/svg">
<path d="M42.1841 2H9.53375C7.60944 2 5.76394 2.74277 4.40324 4.0649C3.04255 5.38703 2.27812 7.18022 2.27812 9.05V65.45C2.27812 67.3198 3.04255 69.113 4.40324 70.4351C5.76394 71.7572 7.60944 72.5 9.53375 72.5H53.0675C54.9918 72.5 56.8373 71.7572 58.198 70.4351C59.5587 69.113 60.3231 67.3198 60.3231 65.45V19.625L42.1841 2Z" stroke="#434238" stroke-width="3" stroke-linecap="round" stroke-linejoin="round"/>
<path d="M38.5562 2V16.1C38.5562 17.9698 39.3207 19.763 40.6814 21.0851C42.0421 22.4072 43.8876 23.15 45.8119 23.15H60.3231" stroke="#434238" stroke-width="3" stroke-linecap="round" stroke-linejoin="round"/>
<path d="M14.2187 45.875C14.2187 38.3172 14.2187 34.5391 16.5664 32.1914C18.9141 29.8437 22.6939 29.8438 30.25 29.8438C37.8061 29.8438 41.5859 29.8437 43.9336 32.1914C46.2812 34.5391 46.2812 38.3189 46.2812 45.875C46.2812 53.4311 46.2812 57.2109 43.9336 59.5586C41.5859 61.9062 37.8061 61.9062 30.25 61.9062C22.6939 61.9062 18.9141 61.9062 16.5664 59.5586C14.2187 57.2109 14.2187 53.4311 14.2187 45.875Z" stroke="#434238" stroke-width="3.5625" stroke-linecap="round" stroke-linejoin="round"/>
<path d="M31.9368 52.6259L30.4762 47.9003M30.4762 47.9003L29.2543 43.9495C28.2586 40.7325 27.7616 39.1259 26.8745 39.1259C25.9892 39.1259 25.4905 40.7325 24.4966 43.9495L23.2728 47.9003M30.4762 47.9003H23.2728M21.8122 52.6242L23.2728 47.9003M36.9991 52.6242V44.1882M36.9991 39.9684V39.1259" stroke="#434238" stroke-width="3.5625" stroke-linecap="round" stroke-linejoin="round"/>
</svg>
