<svg width="62" height="74" viewBox="0 0 62 74" fill="none" xmlns="http://www.w3.org/2000/svg">
<path d="M42.1841 2H9.53375C7.60944 2 5.76394 2.74277 4.40324 4.0649C3.04255 5.38703 2.27812 7.18022 2.27812 9.05V65.45C2.27812 67.3198 3.04255 69.113 4.40324 70.4351C5.76394 71.7572 7.60944 72.5 9.53375 72.5H53.0675C54.9918 72.5 56.8373 71.7572 58.198 70.4351C59.5587 69.113 60.3231 67.3198 60.3231 65.45V19.625L42.1841 2Z" stroke="#434238" stroke-width="3" stroke-linecap="round" stroke-linejoin="round"/>
<path d="M38.5562 2V16.1C38.5562 17.9698 39.3207 19.763 40.6814 21.0851C42.0421 22.4072 43.8876 23.15 45.8119 23.15H60.3231" stroke="#434238" stroke-width="3" stroke-linecap="round" stroke-linejoin="round"/>
<path d="M45.1023 26.75H18.3977C16.038 26.75 14.125 28.663 14.125 31.0227V57.7273C14.125 60.087 16.038 62 18.3977 62H45.1023C47.462 62 49.375 60.087 49.375 57.7273V31.0227C49.375 28.663 47.462 26.75 45.1023 26.75Z" stroke="#434238" stroke-width="3.20455" stroke-linecap="round" stroke-linejoin="round"/>
<path d="M30.6818 42.7727V53.4545C30.6818 54.0211 30.4567 54.5645 30.0561 54.9652C29.6554 55.3658 29.112 55.5909 28.5454 55.5909H25.3409M42.9659 42.7727H38.6932C38.1266 42.7727 37.5832 42.9978 37.1825 43.3984C36.7819 43.7991 36.5568 44.3425 36.5568 44.9091V47.0454C36.5568 47.612 36.7819 48.1554 37.1825 48.5561C37.5832 48.9567 38.1266 49.1818 38.6932 49.1818H40.8295C41.3961 49.1818 41.9395 49.4069 42.3402 49.8075C42.7408 50.2082 42.9659 50.7516 42.9659 51.3182V53.4545C42.9659 54.0211 42.7408 54.5645 42.3402 54.9652C41.9395 55.3658 41.3961 55.5909 40.8295 55.5909H36.5568" stroke="#434238" stroke-width="3.20455" stroke-linecap="round" stroke-linejoin="round"/>
</svg>
