<svg width="62" height="74" viewBox="0 0 62 74" fill="none" xmlns="http://www.w3.org/2000/svg">
<path d="M41.4341 1.5H8.78375C6.85944 1.5 5.01394 2.24277 3.65324 3.5649C2.29255 4.88703 1.52812 6.68022 1.52812 8.55V64.95C1.52812 66.8198 2.29255 68.613 3.65324 69.9351C5.01394 71.2572 6.85944 72 8.78375 72H52.3175C54.2418 72 56.0873 71.2572 57.448 69.9351C58.8087 68.613 59.5731 66.8198 59.5731 64.95V19.125L41.4341 1.5Z" stroke="#434238" stroke-width="3" stroke-linecap="round" stroke-linejoin="round"/>
<path d="M37.8062 1.5V15.6C37.8062 17.4698 38.5707 19.263 39.9314 20.5851C41.2921 21.9072 43.1376 22.65 45.0619 22.65H59.5731" stroke="#434238" stroke-width="3" stroke-linecap="round" stroke-linejoin="round"/>
<path d="M25.6562 40.7813V55.1097C25.6561 55.7343 25.4918 56.3478 25.1798 56.8889C24.8677 57.43 24.4189 57.8795 23.8783 58.1923C23.3377 58.5052 22.7244 58.6705 22.0998 58.6715C21.4752 58.6726 20.8613 58.5094 20.3196 58.1983L17.5266 56.5952C16.7451 56.1178 16.0994 55.4475 15.6515 54.6486C15.2036 53.8498 14.9685 52.9493 14.9688 52.0334V40.2148C14.9688 39.2993 15.204 38.3991 15.6519 37.6006C16.0998 36.8022 16.7454 36.1321 17.5266 35.6548L28.2141 29.123C29.053 28.6105 30.017 28.3394 31 28.3394C31.983 28.3394 32.947 28.6105 33.7859 29.123L44.4734 35.6548C45.2549 36.1323 45.9006 36.8026 46.3485 37.6014C46.7964 38.4003 47.0315 39.3008 47.0312 40.2166V52.0334C47.0312 52.949 46.796 53.8491 46.3481 54.6476C45.9002 55.4461 45.2546 56.1161 44.4734 56.5934L33.7859 63.1253C32.947 63.6378 31.983 63.9089 31 63.9089C30.017 63.9089 29.053 63.6378 28.2141 63.1253" stroke="#434238" stroke-width="3.5625" stroke-linecap="round" stroke-linejoin="round"/>
<path d="M39.9062 40.7812H33.6719C32.9632 40.7812 32.2836 41.0627 31.7826 41.5638C31.2815 42.0649 31 42.7445 31 43.4531C31 44.1618 31.2815 44.8414 31.7826 45.3424C32.2836 45.8435 32.9632 46.125 33.6719 46.125H37.2344C37.943 46.125 38.6226 46.4065 39.1237 46.9076C39.6247 47.4086 39.9062 48.0882 39.9062 48.7969C39.9062 49.5055 39.6247 50.1851 39.1237 50.6862C38.6226 51.1873 37.943 51.4688 37.2344 51.4688H31" stroke="#434238" stroke-width="3.5625" stroke-linecap="round" stroke-linejoin="round"/>
</svg>
