<svg width="62" height="74" viewBox="0 0 62 74" fill="none" xmlns="http://www.w3.org/2000/svg">
<path d="M41.9341 2H9.28376C7.35945 2 5.51395 2.74277 4.15326 4.0649C2.79257 5.38703 2.02814 7.18022 2.02814 9.05V65.45C2.02814 67.3198 2.79257 69.113 4.15326 70.4351C5.51395 71.7572 7.35945 72.5 9.28376 72.5H52.8175C54.7418 72.5 56.5873 71.7572 57.948 70.4351C59.3087 69.113 60.0731 67.3198 60.0731 65.45V19.625L41.9341 2Z" stroke="#434238" stroke-width="3" stroke-linecap="round" stroke-linejoin="round"/>
<path d="M38.3063 2V16.1C38.3063 17.9698 39.0707 19.763 40.4314 21.0851C41.7921 22.4072 43.6376 23.15 45.5619 23.15H60.0732" stroke="#434238" stroke-width="3" stroke-linecap="round" stroke-linejoin="round"/>
<path d="M13.9688 45.875C13.9688 38.3172 13.9687 34.5391 16.3164 32.1914C18.6641 29.8437 22.4439 29.8438 30 29.8438C37.5561 29.8438 41.3359 29.8437 43.6836 32.1914C46.0312 34.5391 46.0312 38.3189 46.0312 45.875C46.0312 53.4311 46.0312 57.2109 43.6836 59.5586C41.3359 61.9062 37.5561 61.9062 30 61.9062C22.4439 61.9062 18.6641 61.9062 16.3164 59.5586C13.9687 57.2109 13.9688 53.4311 13.9688 45.875Z" stroke="#434238" stroke-width="3.5625" stroke-linecap="round" stroke-linejoin="round"/>
<path d="M20.7197 52.6259V45.875M20.7197 45.875V41.0229C20.7197 40.8269 20.7197 40.729 20.7268 40.647C20.8052 39.8455 21.4393 39.2113 22.2409 39.133C22.3228 39.1258 22.4208 39.1258 22.6167 39.1258H24.9377C25.3874 39.1155 25.8346 39.1951 26.253 39.3601C26.6715 39.525 27.0528 39.772 27.3745 40.0863C27.6962 40.4007 27.9518 40.7762 28.1263 41.1908C28.3008 41.6053 28.3907 42.0506 28.3907 42.5004C28.3907 42.9502 28.3008 43.3955 28.1263 43.81C27.9518 44.2246 27.6962 44.6001 27.3745 44.9145C27.0528 45.2289 26.6715 45.4758 26.253 45.6407C25.8346 45.8057 25.3874 45.8853 24.9377 45.875H20.7197ZM39.2233 44.5622C38.9312 43.3884 37.5579 42.4995 35.9066 42.4995C34.0417 42.4995 32.5312 43.6342 32.5312 45.0307C32.5312 46.429 34.0417 47.5618 35.9066 47.5618C37.7698 47.5618 39.2821 48.6965 39.2821 50.093C39.2821 51.4913 37.7698 52.6241 35.9066 52.6241C34.2501 52.6241 32.8714 51.73 32.5864 50.549" stroke="#434238" stroke-width="3.5625" stroke-linecap="round" stroke-linejoin="round"/>
</svg>
