<svg width="62" height="74" viewBox="0 0 62 74" fill="none" xmlns="http://www.w3.org/2000/svg">
<path d="M41.9341 1.5H9.28376C7.35945 1.5 5.51395 2.24277 4.15326 3.5649C2.79257 4.88703 2.02814 6.68022 2.02814 8.55V64.95C2.02814 66.8198 2.79257 68.613 4.15326 69.9351C5.51395 71.2572 7.35945 72 9.28376 72H52.8175C54.7418 72 56.5873 71.2572 57.948 69.9351C59.3087 68.613 60.0731 66.8198 60.0731 64.95V19.125L41.9341 1.5Z" stroke="#434238" stroke-width="3" stroke-linecap="round" stroke-linejoin="round"/>
<path d="M38.3063 1.5V15.6C38.3063 17.4698 39.0707 19.263 40.4314 20.5851C41.7921 21.9072 43.6376 22.65 45.5619 22.65H60.0732" stroke="#434238" stroke-width="3" stroke-linecap="round" stroke-linejoin="round"/>
<path d="M30.9631 48.5197C30.365 48.7945 29.7097 49.1527 28.3978 49.8726C27.9004 50.1524 27.3807 50.4322 26.897 50.6958C26.8634 50.6622 26.8286 50.62 26.795 50.5851C24.1999 47.8122 19.4001 45.8537 19.604 42.1296C19.6799 40.7729 20.1462 37.2117 28.8218 32.8869C35.9618 29.3679 41.6432 30.3428 42.6243 32.5051C44.0344 35.5877 39.5791 41.3238 32.2053 42.1557C31.3892 42.3211 30.5464 42.3011 29.739 42.097C28.9317 41.893 28.1806 41.5102 27.5411 40.9769C27.1506 40.5528 27.0922 40.528 26.9479 40.6125C26.7104 40.7369 26.8634 41.1211 26.9479 41.3412C27.2292 41.8505 27.6097 42.2982 28.067 42.6578C28.5243 43.0175 29.049 43.2818 29.6102 43.4352C32.512 44.0624 35.5374 43.7627 38.2597 42.5785C42.7288 40.8488 46.2179 36.0403 45.1958 32.009C44.1699 27.9217 37.3856 26.5738 30.9668 28.8543C26.947 30.2089 23.2331 32.3414 20.0368 35.1301C16.5003 38.4377 15.9408 41.3126 16.1696 42.5163C16.9927 46.7901 22.8843 49.5717 25.2469 51.6321C25.1242 51.6984 25.0168 51.7577 24.9248 51.8099C23.746 52.3956 19.2521 54.7445 18.1318 57.229C16.8597 60.0442 18.3357 62.0623 19.3106 62.3334C20.7797 62.6857 22.3222 62.5702 23.7225 62.003C25.1228 61.4359 26.3109 60.4454 27.1208 59.17C27.8088 58.1127 28.2312 56.9048 28.3522 55.6492C28.4733 54.3935 28.2893 53.1272 27.8159 51.9579C28.0951 51.735 28.3929 51.5366 28.7062 51.3648C29.308 51.0092 29.8813 50.6585 30.3899 50.3874C32.1315 49.5728 34.0316 49.1528 35.9544 49.1576C39.9907 49.6326 40.7877 52.1507 40.6348 53.2113C40.563 53.5876 40.4116 53.9441 40.1907 54.257C39.9698 54.5699 39.6845 54.832 39.354 55.0255C39.0742 55.2034 38.981 55.2631 39.0058 55.3899C39.0394 55.5764 39.1749 55.5677 39.4124 55.5341C40.0189 55.3425 40.5531 54.9718 40.9451 54.471C41.337 53.9701 41.5682 53.3624 41.6084 52.7276C41.7327 50.2407 39.3615 47.5125 35.1635 47.5374C33.9067 47.5411 32.6625 47.789 31.5003 48.2673C31.3137 48.3444 31.1326 48.4273 30.9569 48.516L30.9631 48.5197ZM24.9634 58.2673C23.6229 59.7259 21.7577 60.2767 20.9519 59.8104C20.0815 59.313 20.426 57.1556 22.0711 55.6125C23.0446 54.7336 24.0978 53.9472 25.217 53.2636C25.4123 53.1392 25.7007 52.9751 26.0477 52.7662L26.1409 52.7152L26.3449 52.5908C26.638 53.5746 26.6646 54.6185 26.4218 55.6159C26.1791 56.6133 25.6758 57.5283 24.9634 58.2673Z" fill="#434238"/>
</svg>
