<svg width="41" height="41" viewBox="0 0 41 41" fill="none" xmlns="http://www.w3.org/2000/svg">
<path d="M11.9583 15.3751L18.3646 20.5001C18.9706 20.9853 19.7237 21.2496 20.5 21.2496C21.2763 21.2496 22.0294 20.9853 22.6354 20.5001L29.0417 15.3751M35.875 29.0417V11.9584C35.875 11.0523 35.515 10.1832 34.8743 9.54247C34.2335 8.90172 33.3645 8.54175 32.4583 8.54175H8.54167C7.63551 8.54175 6.76647 8.90172 6.12572 9.54247C5.48497 10.1832 5.125 11.0523 5.125 11.9584V29.0417C5.125 29.9479 5.48497 30.8169 6.12572 31.4577C6.76647 32.0984 7.63551 32.4584 8.54167 32.4584H32.4583C33.3645 32.4584 34.2335 32.0984 34.8743 31.4577C35.515 30.8169 35.875 29.9479 35.875 29.0417Z" stroke="#434238" stroke-width="3.41667" stroke-linecap="round" stroke-linejoin="round"/>
</svg>
