<svg width="41" height="41" viewBox="0 0 41 41" fill="none" xmlns="http://www.w3.org/2000/svg">
<path d="M9.95444 9.95612C9.36677 10.5523 8.98069 11.3894 8.76544 12.9799C8.54506 14.6284 8.54336 16.8117 8.54336 19.9533V21.0466C8.54336 24.1831 8.54506 26.3647 8.76544 28.0115C8.97898 29.6037 9.36677 30.4459 9.95615 31.0472C10.5541 31.6332 11.3911 32.0209 12.9799 32.2345C14.6284 32.4549 16.8117 32.4583 19.9533 32.4583H21.0466C24.1831 32.4583 26.3647 32.4549 28.0132 32.2345C29.6037 32.0209 30.4459 31.6332 31.0472 31.0438C31.6332 30.4476 32.021 29.6105 32.2345 28.02C32.4566 26.3715 32.4583 24.1882 32.4583 21.0466V19.9533C32.4583 16.8168 32.4549 14.6352 32.2362 12.9884C32.021 11.3962 31.6332 10.554 31.0438 9.9527C30.4476 9.36674 29.6105 8.97895 28.0201 8.76541C26.3715 8.54503 24.1883 8.54162 21.0466 8.54162H19.9533C16.8168 8.54162 14.6353 8.54503 12.9884 8.76541C11.3963 8.97895 10.5558 9.36674 9.95444 9.95612ZM19.9533 5.12495H21.0466C23.5152 5.12495 26.0213 5.05149 28.4728 5.37949C30.4476 5.64428 32.1201 6.20974 33.456 7.53199L33.4696 7.54737C34.7902 8.8867 35.3574 10.5592 35.6221 12.5357C35.9484 14.9837 35.875 17.4882 35.875 19.9533V21.0466C35.875 23.5134 35.9501 26.0196 35.6204 28.4727C35.3574 30.4476 34.7902 32.12 33.4679 33.4559L33.4526 33.4696C32.1149 34.7902 30.4425 35.3556 28.4642 35.6221C26.0162 35.9484 23.5118 35.8749 21.0466 35.8749H19.9533C17.4865 35.8749 14.9804 35.9484 12.5289 35.6204C10.5524 35.3556 8.8799 34.7902 7.54569 33.4679L7.53031 33.4525C6.21148 32.1132 5.64431 30.4407 5.37952 28.4642C5.05152 26.0179 5.12498 23.5134 5.12498 21.0466V19.9533C5.12498 17.4865 5.05152 14.9803 5.38123 12.5272C5.64431 10.5523 6.21148 8.87987 7.53373 7.54395L7.5474 7.53028C8.88673 6.20974 10.5592 5.64428 12.5357 5.37778C14.9855 5.0532 17.4899 5.12495 19.9533 5.12495ZM10.3115 14.4832C10.4755 22.4782 14.473 27.2752 21.484 27.2752H21.894V22.7037C24.4667 22.96 26.4142 24.8459 27.1932 27.2752H30.832C30.459 25.8947 29.7974 24.609 28.891 23.503C27.9847 22.3969 26.854 21.4957 25.5737 20.8587C26.7207 20.16 27.7114 19.2323 28.4838 18.1336C29.2563 17.0349 29.7939 15.7887 30.0632 14.473H26.7627C26.0452 17.015 23.9132 19.3212 21.894 19.5365V14.4832H18.5832V23.3392C16.5332 22.8267 13.9502 20.3462 13.8375 14.4832H10.3115Z" fill="#434238"/>
</svg>
