<svg width="55" height="38" viewBox="0 0 55 38" fill="none" xmlns="http://www.w3.org/2000/svg">
<path fill-rule="evenodd" clip-rule="evenodd" d="M12.0777 36.8163V37.2817H25.2654V36.8163H23.4553C20.9729 36.8163 20.6626 36.506 20.6626 33.6099V27.705H16.6287V33.6099C16.6287 36.506 16.3702 36.8163 13.8878 36.8163H12.0777ZM16.6287 17.1609H20.6626V15.4057H21.2832C23.6153 15.4057 25.3106 16.0644 26.5739 17.1609H30.1556C28.8625 16.0848 27.1898 15.2414 25.0068 14.7334L24.9551 14.5266L33.1779 4.13159C35.35 1.39063 38.5047 0.563164 40.7802 0.563164H41.4008V0.0977173H29.9715V0.563164H30.437C32.0402 0.563164 33.1262 1.02861 33.1262 2.01122C33.1262 2.47667 32.8159 3.14898 32.1953 3.92472L24.0242 14.2163C23.507 14.8369 22.5244 14.9403 20.6626 14.9403V3.30413C20.6626 0.821745 20.9729 0.563164 23.4553 0.563164H23.9207V0.0977173H12.0777V0.563164H13.8878C16.3702 0.563164 16.6287 0.821745 16.6287 3.30413V17.1609ZM34.7375 27.705H30.6939C30.6945 27.7081 30.695 27.7111 30.6956 27.7142C31.6265 32.9893 32.5056 37.9023 37.5221 37.9023C38.815 37.9023 40.2631 37.2817 41.7111 35.9888L42.3834 35.4199L42.0732 35.0579L41.4008 35.6268C40.4699 36.3508 39.6425 36.6094 38.9185 36.6094C35.8672 36.6094 35.4535 33.3513 34.9363 29.2657C34.8735 28.7497 34.8087 28.2283 34.7375 27.705Z" fill="#434238"/>
<path d="M1.67 19V19.05C1.79 19.21 1.84 19.44 1.84 19.67V23.02H2.4C3.66 23.02 4.34 22.32 4.34 21.01C4.34 19.71 3.66 19 2.4 19H1.67ZM0.18 26V25.91H0.53C1.01 25.91 1.06 25.86 1.06 25.38V19.43C1.06 18.95 1.01 18.9 0.53 18.9H0.18V18.81H2.7C4.2 18.81 5.21 19.69 5.21 21.01C5.21 22.33 4.2 23.2 2.7 23.2H1.84V25.38C1.84 25.86 1.9 25.91 2.38 25.91H2.63V26H0.18ZM9.57664 26.08C7.34664 26.08 5.86664 24.61 5.86664 22.4C5.86664 20.2 7.34664 18.73 9.57664 18.73C11.7866 18.73 13.2666 20.2 13.2666 22.4C13.2666 24.61 11.7866 26.08 9.57664 26.08ZM9.60664 25.9C11.4166 25.9 12.3966 24.75 12.3966 22.59C12.3966 20.2 11.3866 18.91 9.53664 18.91C7.71664 18.91 6.73664 20.07 6.73664 22.22C6.73664 24.62 7.73664 25.9 9.60664 25.9ZM13.7542 26V25.91H14.1042C14.5842 25.91 14.6342 25.79 14.6342 25.31V19.42C14.6342 18.94 14.5842 18.9 14.1042 18.9H13.7542V18.81H16.0542V18.9H15.9542C15.4742 18.9 15.4142 18.94 15.4142 19.42V25.29C15.4142 25.51 15.3142 25.69 15.1942 25.81V25.82H18.9442C19.9042 25.82 20.5442 25.63 20.6242 24.67L20.6442 24.37C20.5742 24.4 20.4742 24.4 20.3842 24.4H16.1542V24.31H16.5042C16.9842 24.31 17.0342 24.26 17.0342 23.78V19.43C17.0342 18.95 16.9842 18.9 16.5042 18.9H16.4042V18.81H20.1442C20.3042 18.81 20.4442 18.83 20.5142 18.9H20.5242L20.4942 18.44L20.5842 18.43L20.7642 21.14H20.5842L20.5442 20.44C20.4742 19.37 19.9642 18.99 19.0042 18.99H17.5942V19C17.7142 19.12 17.8142 19.3 17.8142 19.52V21.34H18.2142C18.7742 21.34 19.2942 21.24 19.2942 20.28V20.03H19.3842V23.04H19.2942V22.59C19.2942 21.63 18.7742 21.52 18.2142 21.52H17.8142V23.69C17.8142 23.91 17.7142 24.09 17.5942 24.21V24.22H19.2842C20.2442 24.22 20.6942 23.83 20.7742 22.87L20.8342 22.07H20.9942L20.7042 26.51L20.6042 26.5L20.6442 25.91H20.6342C20.5642 25.98 20.5242 26 20.3642 26H13.7542ZM21.5277 26V25.91H21.8777C22.3577 25.91 22.4077 25.85 22.4077 25.29V19.43C22.4077 18.95 22.3577 18.9 21.8777 18.9H21.5277V18.81H23.8177V18.9H23.7277C23.2477 18.9 23.1877 18.95 23.1877 19.43V21.68C23.5477 21.68 23.7377 21.66 23.8377 21.54L25.4177 19.55C25.5377 19.4 25.5977 19.27 25.5977 19.18C25.5977 18.99 25.3877 18.9 25.0777 18.9H24.9877V18.81H27.1977V18.9H27.0777C26.6377 18.9 26.0277 19.06 25.6077 19.59L24.0177 21.6L24.0277 21.64C25.6177 22.01 25.8077 23.3 25.9477 24.45C26.0477 25.24 26.1277 25.87 26.7177 25.87C26.8577 25.87 27.0177 25.82 27.1977 25.68L27.3277 25.57L27.3877 25.64L27.2577 25.75C26.9777 26 26.6977 26.12 26.4477 26.12C25.4777 26.12 25.3077 25.17 25.1277 24.15C24.9177 22.98 24.6977 21.77 23.3077 21.77H23.1877V25.29C23.1877 25.85 23.2477 25.91 23.7277 25.91H24.0777V26H21.5277ZM27.387 26V25.91H27.737C28.217 25.91 28.267 25.77 28.267 25.29V19.52C28.267 19.04 28.217 18.9 27.737 18.9H27.387V18.81H29.847V18.9H29.587C29.107 18.9 29.047 19.04 29.047 19.52V22.13H31.787V19.52C31.787 19.04 31.727 18.9 31.247 18.9H30.987V18.81H33.457V18.9H33.097C32.617 18.9 32.567 19.04 32.567 19.52V25.29C32.567 25.77 32.617 25.91 33.097 25.91H33.457V26H30.987V25.91H31.257C31.737 25.91 31.787 25.77 31.787 25.29V22.31H29.047V25.29C29.047 25.77 29.107 25.91 29.587 25.91H29.847V26H27.387ZM37.643 26.08C35.413 26.08 33.933 24.61 33.933 22.4C33.933 20.2 35.413 18.73 37.643 18.73C39.853 18.73 41.333 20.2 41.333 22.4C41.333 24.61 39.853 26.08 37.643 26.08ZM37.673 25.9C39.483 25.9 40.463 24.75 40.463 22.59C40.463 20.2 39.453 18.91 37.603 18.91C35.783 18.91 34.803 20.07 34.803 22.22C34.803 24.62 35.803 25.9 37.673 25.9ZM41.3302 18.81H43.3102V18.9H42.5402V18.92C42.6802 18.97 42.7902 19.21 42.8502 19.38L45.1502 24.95C45.1602 24.99 45.2302 25.17 45.2302 25.31H45.3602C45.3602 25.26 45.3702 25.12 45.4602 24.91L47.7002 19.52C47.7402 19.42 47.7602 19.33 47.7602 19.25C47.7602 19.04 47.6202 18.9 47.2802 18.9H46.4202V18.81H48.6002V18.9H48.4802C48.1602 18.9 48.0802 19.08 47.9002 19.52L45.2602 26.05L44.7202 26.09L42.0702 19.52C41.8802 19.07 41.8102 18.9 41.4802 18.9H41.3302V18.81ZM47.2382 26V25.91H47.3982C47.6482 25.91 47.7982 25.63 47.9482 25.29L50.7482 18.81H51.5282V18.93C51.5282 19.13 51.5682 19.39 51.6182 19.51L53.9782 25.29C54.1782 25.77 54.2382 25.91 54.5682 25.91H54.6482V26H52.7382V25.91H53.5082V25.89C53.3782 25.84 53.2682 25.59 53.1982 25.42L52.6382 24.05H48.6782L48.1382 25.29C48.0982 25.38 48.0782 25.45 48.0782 25.52C48.0782 25.76 48.2682 25.91 48.5682 25.91H49.0582V26H47.2382ZM48.7482 23.87H52.5582L50.8682 19.7C50.7982 19.54 50.7882 19.41 50.7882 19.3H50.6982C50.6982 19.36 50.6682 19.49 50.5782 19.7L48.7482 23.87Z" fill="#434238"/>
</svg>
