<svg width="62" height="74" viewBox="0 0 62 74" fill="none" xmlns="http://www.w3.org/2000/svg">
<path d="M41.6841 1.5H9.03376C7.10945 1.5 5.26395 2.24277 3.90326 3.5649C2.54257 4.88703 1.77814 6.68022 1.77814 8.55V64.95C1.77814 66.8198 2.54257 68.613 3.90326 69.9351C5.26395 71.2572 7.10945 72 9.03376 72H52.5675C54.4918 72 56.3373 71.2572 57.698 69.9351C59.0587 68.613 59.8231 66.8198 59.8231 64.95V19.125L41.6841 1.5Z" stroke="#434238" stroke-width="3" stroke-linecap="round" stroke-linejoin="round"/>
<path d="M38.0563 1.5V15.6C38.0563 17.4698 38.8207 19.263 40.1814 20.5851C41.5421 21.9072 43.3876 22.65 45.3119 22.65H59.8232" stroke="#434238" stroke-width="3" stroke-linecap="round" stroke-linejoin="round"/>
<path d="M14.375 27.75H47.375L45.574 59.2557L30.8775 64.767L16.1776 59.2557L14.375 27.75ZM17.8507 31.0305L19.3302 56.9332L30.8775 61.2634L42.4215 56.9332L43.8993 31.0305H17.8507ZM20.1847 34.311H41.2569L41.0798 37.4061L29.1224 43.1305H40.7517L40.0891 54.75L30.8742 58.206L21.6593 54.75L21.4723 51.4794V51.4728L21.3493 49.1929H24.6462L24.7479 51.2989L24.8135 52.4307L30.8742 54.7008L36.9365 52.4274L37.281 46.4077H21.1804L21.0065 43.3766L33.0967 37.5914H30.8742L20.6145 37.6111L20.1847 34.311Z" fill="#434238"/>
</svg>
