<svg width="62" height="74" viewBox="0 0 62 74" fill="none" xmlns="http://www.w3.org/2000/svg">
<path d="M42.1841 1.5H9.53375C7.60944 1.5 5.76394 2.24277 4.40324 3.5649C3.04255 4.88703 2.27812 6.68022 2.27812 8.55V64.95C2.27812 66.8198 3.04255 68.613 4.40324 69.9351C5.76394 71.2572 7.60944 72 9.53375 72H53.0675C54.9918 72 56.8373 71.2572 58.198 69.9351C59.5587 68.613 60.3231 66.8198 60.3231 64.95V19.125L42.1841 1.5Z" stroke="#434238" stroke-width="3" stroke-linecap="round" stroke-linejoin="round"/>
<path d="M38.5563 1.5V15.6C38.5563 17.4698 39.3207 19.263 40.6814 20.5851C42.0421 21.9072 43.8876 22.65 45.8119 22.65H60.3231" stroke="#434238" stroke-width="3" stroke-linecap="round" stroke-linejoin="round"/>
<path d="M45.709 54.5968C47.8488 51.4007 48.8591 47.5812 48.5793 43.7452C48.2995 39.9091 46.7457 36.2767 44.1648 33.4249C41.5839 30.5732 38.124 28.6658 34.3348 28.0058C30.5456 27.3459 26.6446 27.9713 23.2515 29.7825C19.8585 31.5938 17.1682 34.4871 15.608 38.0027C14.0478 41.5182 13.7073 45.4544 14.6405 49.1857C15.5738 52.9169 17.7273 56.2293 20.7589 58.5963C23.7905 60.9634 27.5262 62.2494 31.3724 62.25C32.2095 62.2502 33.0255 61.9869 33.7046 61.4973C34.3837 61.0078 34.8914 60.3169 35.1559 59.5226L41.914 39.25M34.2474 39.25L38.0807 50.75" stroke="#434238" stroke-width="3" stroke-linecap="round" stroke-linejoin="round"/>
<path d="M29.0034 40.0378C28.1317 39.5269 27.1408 39.2548 26.1305 39.2488C25.1202 39.2428 24.1262 39.5031 23.2484 40.0035C22.3707 40.5039 21.6404 41.2267 21.1309 42.0992C20.6214 42.9716 20.3508 43.9629 20.3463 44.9732C20.3419 45.9835 20.6037 46.9772 21.1054 47.8542C21.6071 48.7311 22.331 49.4604 23.2043 49.9685C24.0775 50.4767 25.0692 50.7457 26.0796 50.7487C27.0899 50.7516 28.0831 50.4883 28.9593 49.9852" stroke="#434238" stroke-width="3" stroke-linecap="round" stroke-linejoin="round"/>
</svg>
