<svg width="62" height="74" viewBox="0 0 62 74" fill="none" xmlns="http://www.w3.org/2000/svg">
<path d="M41.6841 2H9.03376C7.10945 2 5.26395 2.74277 3.90326 4.0649C2.54257 5.38703 1.77814 7.18022 1.77814 9.05V65.45C1.77814 67.3198 2.54257 69.113 3.90326 70.4351C5.26395 71.7572 7.10945 72.5 9.03376 72.5H52.5675C54.4918 72.5 56.3373 71.7572 57.698 70.4351C59.0587 69.113 59.8231 67.3198 59.8231 65.45V19.625L41.6841 2Z" stroke="#434238" stroke-width="3" stroke-linecap="round" stroke-linejoin="round"/>
<path d="M38.0563 2V16.1C38.0563 17.9698 38.8207 19.763 40.1814 21.0851C41.5421 22.4072 43.3876 23.15 45.3119 23.15H59.8232" stroke="#434238" stroke-width="3" stroke-linecap="round" stroke-linejoin="round"/>
<g clip-path="url(#clip0_227_311)">
<path d="M29.75 28.0625H23.5156C21.8622 28.0625 20.2764 28.7193 19.1073 29.8885C17.9381 31.0577 17.2812 32.6434 17.2812 34.2969C17.2812 35.9503 17.9381 37.5361 19.1073 38.7052C20.2764 39.8744 21.8622 40.5312 23.5156 40.5312H29.75M29.75 28.0625V40.5312M29.75 28.0625H35.9844C36.8031 28.0625 37.6138 28.2238 38.3702 28.5371C39.1266 28.8504 39.8138 29.3096 40.3927 29.8885C40.9717 30.4674 41.4309 31.1547 41.7442 31.9111C42.0575 32.6675 42.2188 33.4782 42.2188 34.2969C42.2188 35.1156 42.0575 35.9263 41.7442 36.6827C41.4309 37.4391 40.9717 38.1263 40.3927 38.7052C39.8138 39.2842 39.1266 39.7434 38.3702 40.0567C37.6138 40.37 36.8031 40.5313 35.9844 40.5312H29.75" stroke="#434238" stroke-width="3.5625" stroke-linecap="round" stroke-linejoin="round"/>
<path d="M23.5156 53C21.8622 53 20.2764 53.6568 19.1073 54.826C17.9381 55.9952 17.2812 57.5809 17.2812 59.2344C17.2812 60.8878 17.9381 62.4736 19.1073 63.6427C20.2764 64.8119 21.8622 65.4688 23.5156 65.4688C25.1691 65.4688 26.7548 64.8119 27.924 63.6427C29.0932 62.4736 29.75 60.8878 29.75 59.2344V53M23.5156 53H29.75M23.5156 53C21.8622 53 20.2764 52.3432 19.1073 51.174C17.9381 50.0048 17.2812 48.4191 17.2812 46.7656C17.2812 45.1122 17.9381 43.5264 19.1073 42.3573C20.2764 41.1881 21.8622 40.5312 23.5156 40.5312H29.75V53M29.75 46.7656C29.75 45.9469 29.9113 45.1362 30.2246 44.3798C30.5379 43.6234 30.9971 42.9362 31.576 42.3573C32.1549 41.7783 32.8422 41.3191 33.5986 41.0058C34.355 40.6925 35.1657 40.5312 35.9844 40.5312C36.8031 40.5312 37.6138 40.6925 38.3702 41.0058C39.1266 41.3191 39.8138 41.7783 40.3927 42.3573C40.9717 42.9362 41.4309 43.6234 41.7442 44.3798C42.0575 45.1362 42.2188 45.9469 42.2188 46.7656C42.2188 47.5843 42.0575 48.395 41.7442 49.1514C41.4309 49.9078 40.9717 50.5951 40.3927 51.174C39.8138 51.7529 39.1266 52.2121 38.3702 52.5254C37.6138 52.8387 36.8031 53 35.9844 53C35.1657 53 34.355 52.8387 33.5986 52.5254C32.8422 52.2121 32.1549 51.7529 31.576 51.174C30.9971 50.5951 30.5379 49.9078 30.2246 49.1514C29.9113 48.395 29.75 47.5843 29.75 46.7656Z" stroke="#434238" stroke-width="3.5625" stroke-linecap="round" stroke-linejoin="round"/>
</g>
<defs>
<clipPath id="clip0_227_311">
<rect width="42.75" height="42.75" fill="white" transform="translate(8.375 24.5)"/>
</clipPath>
</defs>
</svg>
