<svg width="62" height="74" viewBox="0 0 62 74" fill="none" xmlns="http://www.w3.org/2000/svg">
<path d="M41.6841 1.5H9.03376C7.10945 1.5 5.26395 2.24277 3.90326 3.5649C2.54257 4.88703 1.77814 6.68022 1.77814 8.55V64.95C1.77814 66.8198 2.54257 68.613 3.90326 69.9351C5.26395 71.2572 7.10945 72 9.03376 72H52.5675C54.4918 72 56.3373 71.2572 57.698 69.9351C59.0587 68.613 59.8231 66.8198 59.8231 64.95V19.125L41.6841 1.5Z" stroke="#434238" stroke-width="3" stroke-linecap="round" stroke-linejoin="round"/>
<path d="M38.0563 1.5V15.6C38.0563 17.4698 38.8207 19.263 40.1814 20.5851C41.5421 21.9072 43.3876 22.65 45.3119 22.65H59.8232" stroke="#434238" stroke-width="3" stroke-linecap="round" stroke-linejoin="round"/>
<path d="M31.25 27.4218C30.5767 27.4218 29.9194 27.6677 29.4131 28.174L25.6551 31.9721C25.452 32.0816 25.281 32.2392 25.1554 32.4316L13.2977 44.2881C12.8113 44.7757 12.5381 45.4363 12.5381 46.125C12.5381 46.8137 12.8113 47.4743 13.2977 47.9619L29.4131 64.0773C29.9021 64.5611 30.5621 64.8324 31.25 64.8324C31.9378 64.8324 32.5979 64.5611 33.0869 64.0773L49.2023 47.9619C49.6887 47.4743 49.9618 46.8137 49.9618 46.125C49.9618 45.4363 49.6887 44.7757 49.2023 44.2881L33.0856 28.1726C32.8448 27.9319 32.5584 27.7416 32.2433 27.6127C31.9281 27.4838 31.5905 27.4189 31.25 27.4218ZM31.25 30.1351L47.2398 46.125L31.25 62.1148L15.2602 46.125L26.3244 35.0621L28.6623 37.4C28.6026 37.6316 28.5743 37.8702 28.5781 38.1094C28.5781 39.0953 29.1152 39.9409 29.9141 40.4058V51.8441C29.1152 52.309 28.5781 53.1533 28.5781 54.1406C28.5781 54.8492 28.8596 55.5288 29.3607 56.0299C29.8618 56.531 30.5414 56.8125 31.25 56.8125C31.9586 56.8125 32.6382 56.531 33.1393 56.0299C33.6404 55.5288 33.9219 54.8492 33.9219 54.1406C33.9219 53.1547 33.3848 52.309 32.5859 51.8441V41.3664L36.6779 45.457C36.5759 45.8519 36.5657 46.2649 36.6481 46.6643C36.7304 47.0637 36.9031 47.439 37.1528 47.7614C37.4026 48.0838 37.7229 48.3447 38.0891 48.5242C38.4553 48.7037 38.8578 48.797 39.2656 48.7969C39.974 48.7965 40.6533 48.5148 41.1541 48.0138C41.6548 47.5128 41.9362 46.8334 41.9362 46.125C41.9365 45.717 41.8434 45.3144 41.664 44.948C41.4846 44.5817 41.2237 44.2612 40.9013 44.0113C40.5788 43.7613 40.2035 43.5885 39.8039 43.5062C39.4044 43.4238 38.9913 43.4339 38.5963 43.5359L33.8377 38.7773C33.9397 38.3824 33.9499 37.9695 33.8675 37.57C33.7852 37.1706 33.6126 36.7953 33.3628 36.4729C33.113 36.1505 32.7927 35.8896 32.4265 35.7101C32.0603 35.5306 31.6578 35.4374 31.25 35.4375C31.0113 35.4338 30.7731 35.4621 30.5419 35.5216L28.2041 33.1837L31.25 30.1351Z" fill="#434238"/>
</svg>
