<svg width="62" height="74" viewBox="0 0 62 74" fill="none" xmlns="http://www.w3.org/2000/svg">
<path d="M41.6841 2H9.03376C7.10945 2 5.26395 2.74277 3.90326 4.0649C2.54257 5.38703 1.77814 7.18022 1.77814 9.05V65.45C1.77814 67.3198 2.54257 69.113 3.90326 70.4351C5.26395 71.7572 7.10945 72.5 9.03376 72.5H52.5675C54.4918 72.5 56.3373 71.7572 57.698 70.4351C59.0587 69.113 59.8231 67.3198 59.8231 65.45V19.625L41.6841 2Z" stroke="#434238" stroke-width="3" stroke-linecap="round" stroke-linejoin="round"/>
<path d="M38.0563 2V16.1C38.0563 17.9698 38.8207 19.763 40.1814 21.0851C41.5421 22.4072 43.3876 23.15 45.3119 23.15H59.8232" stroke="#434238" stroke-width="3" stroke-linecap="round" stroke-linejoin="round"/>
<path d="M43.2744 29H17.7256C17.468 29 17.2132 29.0531 16.9776 29.1558C16.7419 29.2586 16.5306 29.4087 16.3572 29.5966C16.1838 29.7845 16.052 30.006 15.9704 30.2471C15.8887 30.4881 15.859 30.7432 15.8831 30.9962L18.3706 57.1617C18.4007 57.4802 18.5152 57.7852 18.7024 58.0463C18.8897 58.3074 19.1432 58.5154 19.4376 58.6495L29.7245 63.332C29.9676 63.4427 30.2322 63.5 30.5 63.5C30.7678 63.5 31.0324 63.4427 31.2755 63.332L41.5624 58.6495C41.857 58.5156 42.1107 58.3076 42.2981 58.0465C42.4855 57.7854 42.6001 57.4802 42.6303 57.1617L45.1169 30.9962C45.141 30.7432 45.1113 30.4881 45.0296 30.2471C44.948 30.006 44.8162 29.7845 44.6428 29.5966C44.4694 29.4087 44.2581 29.2586 44.0224 29.1558C43.7868 29.0531 43.532 29 43.2744 29Z" stroke="#434238" stroke-width="3.57171"/>
<path d="M37.9033 35.3894H23.0967L24.0222 43.6043H36.9779L36.0525 53.6448L30.5 56.3831L24.9476 53.6448L24.4849 49.081" stroke="#434238" stroke-width="3.57171" stroke-linecap="round" stroke-linejoin="round"/>
</svg>
