<svg width="62" height="74" viewBox="0 0 62 74" fill="none" xmlns="http://www.w3.org/2000/svg">
<path d="M41.4341 2H8.78375C6.85944 2 5.01394 2.74277 3.65324 4.0649C2.29255 5.38703 1.52812 7.18022 1.52812 9.05V65.45C1.52812 67.3198 2.29255 69.113 3.65324 70.4351C5.01394 71.7572 6.85944 72.5 8.78375 72.5H52.3175C54.2418 72.5 56.0873 71.7572 57.448 70.4351C58.8087 69.113 59.5731 67.3198 59.5731 65.45V19.625L41.4341 2Z" stroke="#434238" stroke-width="3" stroke-linecap="round" stroke-linejoin="round"/>
<path d="M37.8063 2V16.1C37.8063 17.9698 38.5707 19.763 39.9314 21.0851C41.2921 22.4072 43.1376 23.15 45.0619 23.15H59.5731" stroke="#434238" stroke-width="3" stroke-linecap="round" stroke-linejoin="round"/>
<path d="M13.4688 45.875C13.4688 38.3172 13.4687 34.5391 15.8164 32.1914C18.1641 29.8437 21.9439 29.8438 29.5 29.8438C37.0561 29.8438 40.8359 29.8437 43.1836 32.1914C45.5312 34.5391 45.5312 38.3189 45.5312 45.875C45.5312 53.4311 45.5312 57.2109 43.1836 59.5586C40.8359 61.9062 37.0561 61.9062 29.5 61.9062C21.9439 61.9062 18.1641 61.9062 15.8164 59.5586C13.4687 57.2109 13.4688 53.4311 13.4688 45.875Z" stroke="#434238" stroke-width="3.5625" stroke-linecap="round" stroke-linejoin="round"/>
<path d="M34.5623 44.1882V50.9391C34.5623 52.7987 33.6895 52.6242 32.0329 52.6242C30.9143 52.6242 29.8414 52.1798 29.0504 51.3888C28.2593 50.5977 27.8149 49.5249 27.8149 48.4062C27.8149 47.2875 28.2593 46.2146 29.0504 45.4236C29.8414 44.6326 30.9143 44.1882 32.0329 44.1882H34.5623ZM34.5623 44.1882V39.1241M22.7509 39.1259V52.6242" stroke="#434238" stroke-width="3.5625" stroke-linecap="round" stroke-linejoin="round"/>
</svg>
