<svg width="62" height="74" viewBox="0 0 62 74" fill="none" xmlns="http://www.w3.org/2000/svg">
<path d="M41.6841 2H9.03376C7.10945 2 5.26395 2.74277 3.90326 4.0649C2.54257 5.38703 1.77814 7.18022 1.77814 9.05V65.45C1.77814 67.3198 2.54257 69.113 3.90326 70.4351C5.26395 71.7572 7.10945 72.5 9.03376 72.5H52.5675C54.4918 72.5 56.3373 71.7572 57.698 70.4351C59.0587 69.113 59.8231 67.3198 59.8231 65.45V19.625L41.6841 2Z" stroke="#434238" stroke-width="3" stroke-linecap="round" stroke-linejoin="round"/>
<path d="M38.0563 2V16.1C38.0563 17.9698 38.8207 19.763 40.1814 21.0851C41.5421 22.4072 43.3876 23.15 45.3119 23.15H59.8232" stroke="#434238" stroke-width="3" stroke-linecap="round" stroke-linejoin="round"/>
<path d="M31.1094 40.3447C33.1802 40.3447 34.869 41.9856 34.869 44.0368C34.869 45.9903 33.1802 47.6507 31.1094 47.6507C29.0386 47.6507 27.3498 45.9903 27.3498 44.0368C27.3498 41.9856 29.0386 40.3447 31.1094 40.3447ZM21.8009 59.6647C23.0675 60.407 25.842 59.274 29.0386 56.3437C27.9932 55.1912 26.9678 53.941 26.0028 52.6321C24.3828 52.4804 22.7722 52.2456 21.1777 51.9289C20.1524 56.1093 20.5343 58.981 21.8009 59.6647ZM23.2284 48.4516L22.6453 47.4554C22.4242 48.0219 22.203 48.5884 22.0623 49.1354C22.6051 49.2526 23.2083 49.3503 23.8315 49.4479L23.2284 48.4516ZM36.3768 46.967L38.0053 44.0368L36.3768 41.1065C35.7737 40.0712 35.1303 39.153 34.5473 38.2349C33.4616 38.1763 32.3157 38.1763 31.1094 38.1763C29.9031 38.1763 28.7571 38.1763 27.6715 38.2349C27.0885 39.153 26.4451 40.0712 25.842 41.1065L24.2135 44.0368L25.842 46.967C26.4451 48.0023 27.0885 48.9205 27.6715 49.8386C28.7571 49.8972 29.9031 49.8972 31.1094 49.8972C32.3157 49.8972 33.4616 49.8972 34.5473 49.8386C35.1303 48.9205 35.7737 48.0023 36.3768 46.967ZM31.1094 33.8396C30.7274 34.2693 30.3253 34.7186 29.9232 35.2461H32.2956C31.8935 34.7186 31.4914 34.2693 31.1094 33.8396ZM31.1094 54.234C31.4914 53.8042 31.8935 53.3549 32.2956 52.8275H29.9232C30.3253 53.3549 30.7274 53.8042 31.1094 54.234ZM40.3977 28.4089C39.1513 27.6665 36.3768 28.7996 33.1802 31.7298C34.2256 32.8823 35.2509 34.1326 36.216 35.4414C37.8646 35.5977 39.493 35.8321 41.0411 36.1447C42.0664 31.9642 41.6844 29.0926 40.3977 28.4089ZM38.9904 39.6219L39.5734 40.6182C39.7946 40.0516 40.0158 39.4851 40.1565 38.9382C39.6137 38.8209 39.0105 38.7233 38.3873 38.6256L38.9904 39.6219ZM41.9056 25.8498C44.861 27.4907 45.1826 31.8079 43.9362 36.8479C49.0427 38.313 52.7219 40.7354 52.7219 44.0368C52.7219 47.3382 49.0427 49.7605 43.9362 51.2256C45.1826 56.2656 44.861 60.5828 41.9056 62.2237C38.9703 63.8647 34.9695 61.9893 31.1094 58.4144C27.2493 61.9893 23.2485 63.8647 20.2931 62.2237C17.3578 60.5828 17.0361 56.2656 18.2826 51.2256C13.176 49.7605 9.49689 47.3382 9.49689 44.0368C9.49689 40.7354 13.176 38.313 18.2826 36.8479C17.0361 31.8079 17.3578 27.4907 20.2931 25.8498C23.2485 24.2089 27.2493 26.0842 31.1094 29.6591C34.9695 26.0842 38.9703 24.2089 41.9056 25.8498ZM41.3226 44.0368C42.0061 45.5019 42.6092 46.967 43.1119 48.4516C47.3338 47.221 49.7062 45.4628 49.7062 44.0368C49.7062 42.6107 47.3338 40.8526 43.1119 39.6219C42.6092 41.1065 42.0061 42.5716 41.3226 44.0368ZM20.8962 44.0368C20.2127 42.5716 19.6095 41.1065 19.1069 39.6219C14.8849 40.8526 12.5126 42.6107 12.5126 44.0368C12.5126 45.4628 14.8849 47.221 19.1069 48.4516C19.6095 46.967 20.2127 45.5019 20.8962 44.0368ZM38.9904 48.4516L38.3873 49.4479C39.0105 49.3503 39.6137 49.2526 40.1565 49.1354C40.0158 48.5884 39.7946 48.0219 39.5734 47.4554L38.9904 48.4516ZM33.1802 56.3437C36.3768 59.274 39.1513 60.407 40.3977 59.6647C41.6844 58.981 42.0664 56.1093 41.0411 51.9289C39.493 52.2414 37.8646 52.4758 36.216 52.6321C35.2509 53.941 34.2256 55.1912 33.1802 56.3437ZM23.2284 39.6219L23.8315 38.6256C23.2083 38.7233 22.6051 38.8209 22.0623 38.9382C22.203 39.4851 22.4242 40.0516 22.6453 40.6182L23.2284 39.6219ZM29.0386 31.7298C25.842 28.7996 23.0675 27.6665 21.8009 28.4089C20.5343 29.0926 20.1524 31.9642 21.1777 36.1447C22.7722 35.8279 24.3828 35.5932 26.0028 35.4414C26.9678 34.1326 27.9932 32.8823 29.0386 31.7298Z" fill="#434238"/>
</svg>
