<svg width="62" height="74" viewBox="0 0 62 74" fill="none" xmlns="http://www.w3.org/2000/svg">
<path d="M41.9341 2H9.28376C7.35945 2 5.51395 2.74277 4.15326 4.0649C2.79257 5.38703 2.02814 7.18022 2.02814 9.05V65.45C2.02814 67.3198 2.79257 69.113 4.15326 70.4351C5.51395 71.7572 7.35945 72.5 9.28376 72.5H52.8175C54.7418 72.5 56.5873 71.7572 57.948 70.4351C59.3087 69.113 60.0731 67.3198 60.0731 65.45V19.625L41.9341 2Z" stroke="#434238" stroke-width="3" stroke-linecap="round" stroke-linejoin="round"/>
<path d="M38.3063 2V16.1C38.3063 17.9698 39.0707 19.763 40.4314 21.0851C41.7921 22.4072 43.6376 23.15 45.5619 23.15H60.0732" stroke="#434238" stroke-width="3" stroke-linecap="round" stroke-linejoin="round"/>
<path d="M39.5144 36.3529C38.0346 32.0055 34.8526 29 31.1688 29C26.0696 29 21.9355 33.8382 21.9355 40.9411C21.9355 44.5366 24.8435 49.6303 26.5531 51.9704" stroke="#434238" stroke-width="3" stroke-linecap="round" stroke-linejoin="round"/>
<path d="M17.77 45.5054C14.7259 48.9557 13.7002 53.1983 15.544 56.3711C18.0936 60.7644 24.9887 61.5751 31.1707 58.0255C34.3012 56.2259 36.4555 51.8454 37.6338 49.2057" stroke="#434238" stroke-width="3" stroke-linecap="round" stroke-linejoin="round"/>
<path d="M36.7092 60.2314C41.325 60.2314 45.0235 59.4263 46.7955 56.3711C49.3451 51.9778 46.4003 45.5385 40.2165 41.9889C37.0879 40.1893 32.2074 39.7187 29.3214 40.022" stroke="#434238" stroke-width="3" stroke-linecap="round" stroke-linejoin="round"/>
<path d="M28.3986 41.6139C29.281 42.1213 30.4115 41.8198 30.9207 40.9411C31.1637 40.5189 31.2291 40.0174 31.1026 39.5469C30.9761 39.0764 30.668 38.6754 30.246 38.432C29.8219 38.1876 29.3182 38.1212 28.8452 38.2473C28.3722 38.3734 27.9684 38.6817 27.7222 39.1047C27.4793 39.5272 27.4141 40.0288 27.541 40.4994C27.6678 40.9699 27.9763 41.3708 28.3986 41.6139ZM24.735 51.9778C24.735 52.4653 24.9287 52.9329 25.2734 53.2776C25.6182 53.6223 26.0857 53.816 26.5733 53.816C27.0608 53.816 27.5284 53.6223 27.8731 53.2776C28.2178 52.9329 28.4115 52.4653 28.4115 51.9778C28.4115 51.4903 28.2178 51.0227 27.8731 50.678C27.5284 50.3332 27.0608 50.1396 26.5733 50.1396C26.0857 50.1396 25.6182 50.3332 25.2734 50.678C24.9287 51.0227 24.735 51.4903 24.735 51.9778ZM35.7644 49.2205C35.7644 49.708 35.958 50.1755 36.3028 50.5203C36.6475 50.865 37.1151 51.0587 37.6026 51.0587C38.0901 51.0587 38.5577 50.865 38.9024 50.5203C39.2471 50.1755 39.4408 49.708 39.4408 49.2205C39.4408 48.7329 39.2471 48.2654 38.9024 47.9206C38.5577 47.5759 38.0901 47.3822 37.6026 47.3822C37.1151 47.3822 36.6475 47.5759 36.3028 47.9206C35.958 48.2654 35.7644 48.7329 35.7644 49.2205Z" stroke="#434238" stroke-width="3" stroke-linecap="round" stroke-linejoin="round"/>
</svg>
