<svg width="62" height="74" viewBox="0 0 62 74" fill="none" xmlns="http://www.w3.org/2000/svg">
<path d="M41.4341 2H8.78375C6.85944 2 5.01394 2.74277 3.65324 4.0649C2.29255 5.38703 1.52812 7.18022 1.52812 9.05V65.45C1.52812 67.3198 2.29255 69.113 3.65324 70.4351C5.01394 71.7572 6.85944 72.5 8.78375 72.5H52.3175C54.2418 72.5 56.0873 71.7572 57.448 70.4351C58.8087 69.113 59.5731 67.3198 59.5731 65.45V19.625L41.4341 2Z" stroke="#434238" stroke-width="3" stroke-linecap="round" stroke-linejoin="round"/>
<path d="M37.8063 2V16.1C37.8063 17.9698 38.5707 19.763 39.9314 21.0851C41.2921 22.4072 43.1376 23.15 45.0619 23.15H59.5731" stroke="#434238" stroke-width="3" stroke-linecap="round" stroke-linejoin="round"/>
<path d="M44.3523 26.75H17.6477C15.288 26.75 13.375 28.663 13.375 31.0227V57.7273C13.375 60.087 15.288 62 17.6477 62H44.3523C46.712 62 48.625 60.087 48.625 57.7273V31.0227C48.625 28.663 46.712 26.75 44.3523 26.75Z" stroke="#434238" stroke-width="3.20455" stroke-linecap="round" stroke-linejoin="round"/>
<path d="M42.2159 42.7727H37.9432C37.3766 42.7727 36.8332 42.9978 36.4325 43.3984C36.0319 43.7991 35.8068 44.3425 35.8068 44.9091V47.0454C35.8068 47.612 36.0319 48.1554 36.4325 48.5561C36.8332 48.9567 37.3766 49.1818 37.9432 49.1818H40.0795C40.6461 49.1818 41.1895 49.4069 41.5902 49.8075C41.9908 50.2082 42.2159 50.7516 42.2159 51.3182V53.4545C42.2159 54.0211 41.9908 54.5645 41.5902 54.9652C41.1895 55.3658 40.6461 55.5909 40.0795 55.5909H35.8068M25.6591 42.7727V55.5909M21.3864 42.7727H29.9318" stroke="#434238" stroke-width="3.20455" stroke-linecap="round" stroke-linejoin="round"/>
</svg>
