<svg width="37" height="36" viewBox="0 0 37 36" fill="none" xmlns="http://www.w3.org/2000/svg">
<path d="M10.0875 7.21649C9.80461 6.94326 9.42571 6.79206 9.03241 6.79548C8.63912 6.7989 8.2629 6.95665 7.98478 7.23477C7.70667 7.51288 7.54892 7.8891 7.5455 8.28239C7.54208 8.67569 7.69327 9.05459 7.96651 9.33749L16.629 18L7.96501 26.6625C7.82175 26.8009 7.70747 26.9664 7.62886 27.1494C7.55025 27.3324 7.50887 27.5292 7.50714 27.7284C7.50541 27.9276 7.54336 28.1251 7.61878 28.3094C7.6942 28.4938 7.80558 28.6612 7.94642 28.8021C8.08726 28.9429 8.25474 29.0543 8.43908 29.1297C8.62343 29.2051 8.82094 29.2431 9.02011 29.2414C9.21928 29.2396 9.41611 29.1983 9.59912 29.1196C9.78212 29.041 9.94764 28.9268 10.086 28.7835L18.75 20.121L27.4125 28.7835C27.6954 29.0567 28.0743 29.2079 28.4676 29.2045C28.8609 29.2011 29.2371 29.0433 29.5152 28.7652C29.7934 28.4871 29.9511 28.1109 29.9545 27.7176C29.9579 27.3243 29.8067 26.9454 29.5335 26.6625L20.871 18L29.5335 9.33749C29.8067 9.05459 29.9579 8.67569 29.9545 8.28239C29.9511 7.8891 29.7934 7.51288 29.5152 7.23477C29.2371 6.95665 28.8609 6.7989 28.4676 6.79548C28.0743 6.79206 27.6954 6.94326 27.4125 7.21649L18.75 15.879L10.0875 7.21649Z" fill="#434238"/>
</svg>
