<svg width="41" height="41" viewBox="0 0 41 41" fill="none" xmlns="http://www.w3.org/2000/svg">
<path d="M22.7072 24.9927C22.0785 25.3634 20.705 25.4762 18.093 22.8727C15.4809 20.2692 15.592 18.8991 15.9627 18.2722C16.9091 18.1765 17.8128 17.5461 18.655 16.7073C19.2752 16.0872 18.7729 14.5822 17.5292 13.3436C16.2873 12.1068 14.7788 11.6045 14.1553 12.2229C10.1561 16.2102 12.1582 21.4411 15.8431 25.114C19.5775 28.8382 24.6786 30.8779 28.7752 26.795C29.397 26.1766 28.8948 24.6699 27.6511 23.433C26.4092 22.1945 24.899 21.6922 24.2772 22.3124C23.4367 23.1494 22.8029 24.0497 22.7072 24.9927Z" fill="#434238"/>
<path fill-rule="evenodd" clip-rule="evenodd" d="M20.5 7.5644C18.1284 7.56418 15.8023 8.21598 13.7761 9.44855C11.7499 10.6811 10.1016 12.447 9.01129 14.5532C7.92099 16.6594 7.43072 19.0247 7.59405 21.3908C7.75739 23.7568 8.56805 26.0324 9.93741 27.9687C10.0647 28.1481 10.1436 28.3572 10.1667 28.5759C10.1897 28.7946 10.156 29.0156 10.069 29.2175L8.23421 33.4593L13.6103 31.8996C13.926 31.8078 14.2648 31.8408 14.5567 31.9919C16.2966 32.8909 18.218 33.3832 20.1758 33.4315C22.1337 33.4798 24.077 33.0829 25.8591 32.2708C27.6412 31.4586 29.2157 30.2524 30.4637 28.7431C31.7117 27.2339 32.6008 25.4609 33.0638 23.5579C33.5268 21.655 33.5516 19.6718 33.1365 17.7578C32.7213 15.8439 31.877 14.0492 30.6672 12.5091C29.4573 10.969 27.9136 9.72374 26.1524 8.86718C24.3912 8.01063 22.4585 7.56517 20.5 7.5644ZM5.00204 20.4999C5.00284 17.1413 6.09469 13.8738 8.11321 11.1894C10.1317 8.50502 12.9677 6.54899 16.194 5.61583C19.4204 4.68266 22.8626 4.82285 26.0025 6.0153C29.1423 7.20774 31.8097 9.38791 33.6033 12.2276C35.3968 15.0672 36.2193 18.4126 35.947 21.7602C35.6747 25.1078 34.3223 28.2763 32.0933 30.7887C29.8644 33.3011 26.8797 35.0215 23.5884 35.6908C20.2971 36.3601 16.8775 35.9421 13.8444 34.4997L6.33796 36.6778C6.10456 36.7454 5.85675 36.7452 5.62346 36.6773C5.39016 36.6093 5.18099 36.4765 5.02035 36.2942C4.85971 36.1118 4.75422 35.8876 4.7162 35.6476C4.67817 35.4076 4.70917 35.1618 4.80558 34.9387L7.43983 28.8434C5.84427 26.3534 4.99808 23.4572 5.00204 20.4999Z" fill="#434238"/>
</svg>
